<svg class="fill-current w-24 md:w-32" xmlns="http://www.w3.org/2000/svg" viewBox="0 0 2919.4 704.39">
    <g>
        <path fill="#ec2227" d="M257.4 477.3L972.3 0h1947.1l-54 95.1-1681.3.5-273.8 381.7H257.4z"></path>
        <path d="M902.2 168.5h98.7L979 198.7h303.2c91.5 0 107.9 18.5 55.9 90l-4.4 5.9H1234l16.1-22.4H947c-91.4 0-107.1-18.5-54.9-90l10.2-14.1v.4zm454.4-52.1l-318.2.5-16 21.9h-98.7c51.6-70 93.8-88.5 184.3-88.5h275.8c86.6 0 107.6 17.5 59.9 83.6l-5.8 8.3-113.3 18.5 31.6-43.8zM756.7 341.7l7.3-10.2 111.4-16.6-32.5 45.2 343.4-.5 25.4-35h99.7l-12.2 16.6c-52.1 71.5-95.4 90-186.8 90.5H812.2c-91.5 0-108-18.5-56-90zM1591.4 240l107.2-.6-55.1 38.6H1857l1.9-38.6h119.5l.9 191.1h-127.2l1.9-83.8-308.5.4-116.9 83.9h-113.1l275.9-191zm269-30.3l4.4-87.2-123.8 87.2h-106.3l233-161.3h109.2l1 161.3h-117.5zM2223.4 362.9h258.7c38.5 0 59-5.8 79.6-34.1l2.9-4.4h105.9l-23.4 32.2c-37.1 51.2-102.5 75.1-197.6 75.1l-387.4.5 77.6-107.4H2251m114-157.6l-25.4 34.6h258.7c35.1 0 55.6-5.3 71.7-27.3l5.3-7.3h104.9l-1.5 2.4c-26.9 37.1-73.3 59.6-130.8 64.4 46.3 5.3 61 26.8 42.9 60h-104.9c15.1-23.4 2.9-28.8-33.2-28.8H2294l-21 28.8h-111.3l91.7-126.9h111.3zm437.2-30.3h-104.9c15.1-21.5 1.9-26.4-32.7-26.4h-258.7l-19 26.4h-111.3l64.4-88.8 417.8-.5c74.6 0 94.6 20.5 55.6 74.2l-10.7 14.6z"></path>
        <path fill="#19ae55" d="M1398 583.7l-1254.3-.4L0 697.7h1333.3l64.7-114z"></path>
        <path fill="#19ae55" stroke="#19ae55" stroke-miterlimit="10" stroke-width="5.58" d="M1613.5 701.6h-39.9L1685.5 530h39.9zm338.7-141H1873l-92 141h-39.9l92-141h-78.8l20-30.6h197.9zm135.2 141h-44.9l3.9-37.6h-108.7l-44.5 37.6h-39.9l209-171.6h38.6zm-37.5-68.5l8.6-69.8-83.8 69.8zm261.3 68.5h-168.6L2254.5 530h39.9l-90.9 139.3h128.7zM2615.3 530l-150 93.8-50.8 77.8h-40.1l50.1-76.8-27.3-94.8h53.2l15.9 65.8 102.1-65.8z"></path>
    </g>
</svg>
